<mxfile host="Electron" agent="Mozilla/5.0 (Macintosh; Intel Mac OS X 10_15_7) AppleWebKit/537.36 (KHTML, like Gecko) draw.io/26.0.9 Chrome/128.0.6613.186 Electron/32.2.5 Safari/537.36" version="26.0.9">
  <diagram name="Page-1" id="-vO6IKAvIUpi8Fm659_Z">
    <mxGraphModel dx="765" dy="439" grid="1" gridSize="10" guides="1" tooltips="1" connect="1" arrows="1" fold="1" page="1" pageScale="1" pageWidth="827" pageHeight="1169" math="0" shadow="0">
      <root>
        <mxCell id="0" />
        <mxCell id="1" parent="0" />
        <mxCell id="kdlLtOx3mS1jV0NhRZuz-1" value="" style="rounded=1;whiteSpace=wrap;html=1;sketch=1;hachureGap=4;jiggle=2;curveFitting=1;fontFamily=Architects Daughter;fontSource=https%3A%2F%2Ffonts.googleapis.com%2Fcss%3Ffamily%3DArchitects%2BDaughter;" parent="1" vertex="1">
          <mxGeometry x="39" y="132" width="380" height="348" as="geometry" />
        </mxCell>
        <mxCell id="kdlLtOx3mS1jV0NhRZuz-2" value="Chatbot" style="rounded=0;whiteSpace=wrap;html=1;sketch=1;hachureGap=4;jiggle=2;curveFitting=1;fontFamily=Architects Daughter;fontSource=https%3A%2F%2Ffonts.googleapis.com%2Fcss%3Ffamily%3DArchitects%2BDaughter;" parent="1" vertex="1">
          <mxGeometry x="249" y="224" width="120" height="225" as="geometry" />
        </mxCell>
        <mxCell id="kdlLtOx3mS1jV0NhRZuz-6" style="edgeStyle=orthogonalEdgeStyle;rounded=0;sketch=1;hachureGap=4;jiggle=2;curveFitting=1;orthogonalLoop=1;jettySize=auto;html=1;fontFamily=Architects Daughter;fontSource=https%3A%2F%2Ffonts.googleapis.com%2Fcss%3Ffamily%3DArchitects%2BDaughter;" parent="1" source="kdlLtOx3mS1jV0NhRZuz-3" target="kdlLtOx3mS1jV0NhRZuz-5" edge="1">
          <mxGeometry relative="1" as="geometry" />
        </mxCell>
        <mxCell id="kdlLtOx3mS1jV0NhRZuz-3" value="Agent" style="text;html=1;align=center;verticalAlign=middle;whiteSpace=wrap;rounded=0;fontFamily=Architects Daughter;fontSource=https%3A%2F%2Ffonts.googleapis.com%2Fcss%3Ffamily%3DArchitects%2BDaughter;" parent="1" vertex="1">
          <mxGeometry x="260" y="157" width="90" height="30" as="geometry" />
        </mxCell>
        <mxCell id="kdlLtOx3mS1jV0NhRZuz-4" value="Data sources" style="text;html=1;align=center;verticalAlign=middle;whiteSpace=wrap;rounded=0;fontFamily=Architects Daughter;fontSource=https%3A%2F%2Ffonts.googleapis.com%2Fcss%3Ffamily%3DArchitects%2BDaughter;shadow=0;strokeColor=default;" parent="1" vertex="1">
          <mxGeometry x="79" y="225" width="140" height="225" as="geometry" />
        </mxCell>
        <mxCell id="W8ZjUxMZ1Ju0fuEqUYie-2" value="" style="edgeStyle=orthogonalEdgeStyle;rounded=0;sketch=1;hachureGap=4;jiggle=2;curveFitting=1;orthogonalLoop=1;jettySize=auto;html=1;fontFamily=Architects Daughter;fontSource=https%3A%2F%2Ffonts.googleapis.com%2Fcss%3Ffamily%3DArchitects%2BDaughter;" edge="1" parent="1" source="kdlLtOx3mS1jV0NhRZuz-5" target="W8ZjUxMZ1Ju0fuEqUYie-1">
          <mxGeometry relative="1" as="geometry" />
        </mxCell>
        <mxCell id="kdlLtOx3mS1jV0NhRZuz-5" value="Agent (URL)&lt;div&gt;Scrape &amp;amp; Save - API&lt;/div&gt;&lt;div&gt;Chatbox interaction - Chatbot&lt;/div&gt;" style="rounded=1;whiteSpace=wrap;html=1;sketch=1;hachureGap=4;jiggle=2;curveFitting=1;fontFamily=Architects Daughter;fontSource=https%3A%2F%2Ffonts.googleapis.com%2Fcss%3Ffamily%3DArchitects%2BDaughter;" parent="1" vertex="1">
          <mxGeometry x="456" y="132" width="180" height="80" as="geometry" />
        </mxCell>
        <mxCell id="kdlLtOx3mS1jV0NhRZuz-8" style="edgeStyle=orthogonalEdgeStyle;rounded=0;sketch=1;hachureGap=4;jiggle=2;curveFitting=1;orthogonalLoop=1;jettySize=auto;html=1;entryX=0.5;entryY=1;entryDx=0;entryDy=0;fontFamily=Architects Daughter;fontSource=https%3A%2F%2Ffonts.googleapis.com%2Fcss%3Ffamily%3DArchitects%2BDaughter;" parent="1" source="kdlLtOx3mS1jV0NhRZuz-7" target="kdlLtOx3mS1jV0NhRZuz-5" edge="1">
          <mxGeometry relative="1" as="geometry" />
        </mxCell>
        <mxCell id="kdlLtOx3mS1jV0NhRZuz-9" style="edgeStyle=orthogonalEdgeStyle;rounded=0;sketch=1;hachureGap=4;jiggle=2;curveFitting=1;orthogonalLoop=1;jettySize=auto;html=1;entryX=1;entryY=0.25;entryDx=0;entryDy=0;fontFamily=Architects Daughter;fontSource=https%3A%2F%2Ffonts.googleapis.com%2Fcss%3Ffamily%3DArchitects%2BDaughter;" parent="1" source="kdlLtOx3mS1jV0NhRZuz-7" target="kdlLtOx3mS1jV0NhRZuz-2" edge="1">
          <mxGeometry relative="1" as="geometry" />
        </mxCell>
        <mxCell id="kdlLtOx3mS1jV0NhRZuz-16" style="edgeStyle=orthogonalEdgeStyle;rounded=0;sketch=1;hachureGap=4;jiggle=2;curveFitting=1;orthogonalLoop=1;jettySize=auto;html=1;entryX=0;entryY=0.5;entryDx=0;entryDy=0;fontFamily=Architects Daughter;fontSource=https%3A%2F%2Ffonts.googleapis.com%2Fcss%3Ffamily%3DArchitects%2BDaughter;" parent="1" source="kdlLtOx3mS1jV0NhRZuz-7" target="kdlLtOx3mS1jV0NhRZuz-15" edge="1">
          <mxGeometry relative="1" as="geometry" />
        </mxCell>
        <mxCell id="kdlLtOx3mS1jV0NhRZuz-7" value="Nillion DB" style="rounded=1;whiteSpace=wrap;html=1;sketch=1;hachureGap=4;jiggle=2;curveFitting=1;fontFamily=Architects Daughter;fontSource=https%3A%2F%2Ffonts.googleapis.com%2Fcss%3Ffamily%3DArchitects%2BDaughter;" parent="1" vertex="1">
          <mxGeometry x="456" y="240" width="180" height="80" as="geometry" />
        </mxCell>
        <mxCell id="kdlLtOx3mS1jV0NhRZuz-11" style="edgeStyle=orthogonalEdgeStyle;rounded=0;sketch=1;hachureGap=4;jiggle=2;curveFitting=1;orthogonalLoop=1;jettySize=auto;html=1;entryX=0.5;entryY=1;entryDx=0;entryDy=0;fontFamily=Architects Daughter;fontSource=https%3A%2F%2Ffonts.googleapis.com%2Fcss%3Ffamily%3DArchitects%2BDaughter;" parent="1" source="kdlLtOx3mS1jV0NhRZuz-10" target="kdlLtOx3mS1jV0NhRZuz-7" edge="1">
          <mxGeometry relative="1" as="geometry" />
        </mxCell>
        <mxCell id="W8ZjUxMZ1Ju0fuEqUYie-3" style="edgeStyle=orthogonalEdgeStyle;rounded=0;sketch=1;hachureGap=4;jiggle=2;curveFitting=1;orthogonalLoop=1;jettySize=auto;html=1;fontFamily=Architects Daughter;fontSource=https%3A%2F%2Ffonts.googleapis.com%2Fcss%3Ffamily%3DArchitects%2BDaughter;entryX=0.998;entryY=0.731;entryDx=0;entryDy=0;entryPerimeter=0;exitX=0;exitY=0.5;exitDx=0;exitDy=0;" edge="1" parent="1" source="kdlLtOx3mS1jV0NhRZuz-10" target="kdlLtOx3mS1jV0NhRZuz-2">
          <mxGeometry relative="1" as="geometry">
            <Array as="points">
              <mxPoint x="456" y="391" />
              <mxPoint x="413" y="391" />
              <mxPoint x="413" y="389" />
            </Array>
          </mxGeometry>
        </mxCell>
        <mxCell id="kdlLtOx3mS1jV0NhRZuz-10" value="Extension:&lt;div&gt;Data source - RAG Toolset&lt;/div&gt;" style="rounded=1;whiteSpace=wrap;html=1;sketch=1;hachureGap=4;jiggle=2;curveFitting=1;fontFamily=Architects Daughter;fontSource=https%3A%2F%2Ffonts.googleapis.com%2Fcss%3Ffamily%3DArchitects%2BDaughter;" parent="1" vertex="1">
          <mxGeometry x="456" y="349" width="180" height="78" as="geometry" />
        </mxCell>
        <mxCell id="kdlLtOx3mS1jV0NhRZuz-15" value="Arbitrum" style="rounded=1;whiteSpace=wrap;html=1;sketch=1;hachureGap=4;jiggle=2;curveFitting=1;fontFamily=Architects Daughter;fontSource=https%3A%2F%2Ffonts.googleapis.com%2Fcss%3Ffamily%3DArchitects%2BDaughter;" parent="1" vertex="1">
          <mxGeometry x="669" y="240" width="90" height="80" as="geometry" />
        </mxCell>
        <mxCell id="kdlLtOx3mS1jV0NhRZuz-19" value="" style="rounded=0;whiteSpace=wrap;html=1;hachureGap=4;fontFamily=Architects Daughter;fontSource=https%3A%2F%2Ffonts.googleapis.com%2Fcss%3Ffamily%3DArchitects%2BDaughter;" parent="1" vertex="1">
          <mxGeometry x="40" y="520" width="160" height="320" as="geometry" />
        </mxCell>
        <mxCell id="kdlLtOx3mS1jV0NhRZuz-20" value="YAAA WHO!" style="text;html=1;align=center;verticalAlign=middle;whiteSpace=wrap;rounded=0;fontFamily=Architects Daughter;fontSource=https%3A%2F%2Ffonts.googleapis.com%2Fcss%3Ffamily%3DArchitects%2BDaughter;fontSize=9;labelBorderColor=none;strokeColor=default;" parent="1" vertex="1">
          <mxGeometry x="40" y="520" width="160" height="30" as="geometry" />
        </mxCell>
        <mxCell id="kdlLtOx3mS1jV0NhRZuz-25" value="" style="triangle;whiteSpace=wrap;html=1;hachureGap=4;fontFamily=Architects Daughter;fontSource=https%3A%2F%2Ffonts.googleapis.com%2Fcss%3Ffamily%3DArchitects%2BDaughter;fillColor=#00CC66;" parent="1" vertex="1">
          <mxGeometry x="157" y="558" width="10" height="14.5" as="geometry" />
        </mxCell>
        <mxCell id="kdlLtOx3mS1jV0NhRZuz-26" value="Scrape this page" style="text;html=1;align=center;verticalAlign=middle;whiteSpace=wrap;rounded=0;fontFamily=Architects Daughter;fontSource=https%3A%2F%2Ffonts.googleapis.com%2Fcss%3Ffamily%3DArchitects%2BDaughter;fontSize=9;labelBorderColor=none;strokeColor=none;" parent="1" vertex="1">
          <mxGeometry x="66.5" y="550" width="81" height="30" as="geometry" />
        </mxCell>
        <mxCell id="kdlLtOx3mS1jV0NhRZuz-29" value="&lt;font style=&quot;font-size: 10px;&quot;&gt;YAAA (public)&lt;/font&gt;" style="rounded=1;fillColor=#0000CC;strokeColor=none;html=1;fontColor=#ffffff;align=left;fontSize=12;spacingLeft=10;sketch=0;hachureGap=4;pointerEvents=0;fontFamily=Architects Daughter;fontSource=https%3A%2F%2Ffonts.googleapis.com%2Fcss%3Ffamily%3DArchitects%2BDaughter;jiggle=2;curveFitting=1;" parent="1" vertex="1">
          <mxGeometry x="52" y="591" width="118" height="33" as="geometry" />
        </mxCell>
        <mxCell id="kdlLtOx3mS1jV0NhRZuz-30" value="" style="shape=triangle;direction=south;fillColor=#ffffff;strokeColor=none;html=1;hachureGap=4;pointerEvents=0;fontFamily=Architects Daughter;fontSource=https%3A%2F%2Ffonts.googleapis.com%2Fcss%3Ffamily%3DArchitects%2BDaughter;fontSize=20;" parent="kdlLtOx3mS1jV0NhRZuz-29" vertex="1">
          <mxGeometry x="1" y="0.5" width="12" height="6" relative="1" as="geometry">
            <mxPoint x="-20" y="-3" as="offset" />
          </mxGeometry>
        </mxCell>
        <mxCell id="kdlLtOx3mS1jV0NhRZuz-31" value="" style="rounded=1;fillColor=#ffffff;strokeColor=#DFE1E5;shadow=1;html=1;arcSize=4;hachureGap=4;pointerEvents=0;fontFamily=Architects Daughter;fontSource=https%3A%2F%2Ffonts.googleapis.com%2Fcss%3Ffamily%3DArchitects%2BDaughter;fontSize=20;" parent="1" vertex="1">
          <mxGeometry x="52" y="627" width="118" height="143" as="geometry" />
        </mxCell>
        <mxCell id="kdlLtOx3mS1jV0NhRZuz-32" value="Kids (private)" style="rounded=0;fillColor=#F4F5F7;strokeColor=none;shadow=0;html=1;align=left;fontSize=9;spacingLeft=10;fontColor=#253858;resizeWidth=1;sketch=1;hachureGap=4;pointerEvents=0;fontFamily=Architects Daughter;fontSource=https%3A%2F%2Ffonts.googleapis.com%2Fcss%3Ffamily%3DArchitects%2BDaughter;jiggle=2;curveFitting=1;" parent="kdlLtOx3mS1jV0NhRZuz-31" vertex="1">
          <mxGeometry width="118" height="33" relative="1" as="geometry">
            <mxPoint y="6" as="offset" />
          </mxGeometry>
        </mxCell>
        <mxCell id="kdlLtOx3mS1jV0NhRZuz-33" value="Coding (private)" style="rounded=0;fillColor=none;strokeColor=none;shadow=0;html=1;align=left;fontSize=9;spacingLeft=10;fontColor=#253858;resizeWidth=1;sketch=1;hachureGap=4;pointerEvents=0;fontFamily=Architects Daughter;fontSource=https%3A%2F%2Ffonts.googleapis.com%2Fcss%3Ffamily%3DArchitects%2BDaughter;jiggle=2;curveFitting=1;" parent="kdlLtOx3mS1jV0NhRZuz-31" vertex="1">
          <mxGeometry width="118" height="33" relative="1" as="geometry">
            <mxPoint y="39" as="offset" />
          </mxGeometry>
        </mxCell>
        <mxCell id="kdlLtOx3mS1jV0NhRZuz-34" value="Vacation (private)" style="rounded=0;fillColor=none;strokeColor=none;shadow=0;html=1;align=left;fontSize=9;spacingLeft=10;fontColor=#253858;resizeWidth=1;sketch=1;hachureGap=4;pointerEvents=0;fontFamily=Architects Daughter;fontSource=https%3A%2F%2Ffonts.googleapis.com%2Fcss%3Ffamily%3DArchitects%2BDaughter;jiggle=2;curveFitting=1;" parent="kdlLtOx3mS1jV0NhRZuz-31" vertex="1">
          <mxGeometry width="118" height="33" relative="1" as="geometry">
            <mxPoint y="72" as="offset" />
          </mxGeometry>
        </mxCell>
        <mxCell id="kdlLtOx3mS1jV0NhRZuz-35" value="Work (private)" style="rounded=0;fillColor=none;strokeColor=none;shadow=0;html=1;align=left;fontSize=9;spacingLeft=10;fontColor=#253858;resizeWidth=1;sketch=1;hachureGap=4;pointerEvents=0;fontFamily=Architects Daughter;fontSource=https%3A%2F%2Ffonts.googleapis.com%2Fcss%3Ffamily%3DArchitects%2BDaughter;jiggle=2;curveFitting=1;" parent="kdlLtOx3mS1jV0NhRZuz-31" vertex="1">
          <mxGeometry width="118" height="33" relative="1" as="geometry">
            <mxPoint y="105" as="offset" />
          </mxGeometry>
        </mxCell>
        <mxCell id="kdlLtOx3mS1jV0NhRZuz-36" value="" style="rounded=0;whiteSpace=wrap;html=1;hachureGap=4;fontFamily=Architects Daughter;fontSource=https%3A%2F%2Ffonts.googleapis.com%2Fcss%3Ffamily%3DArchitects%2BDaughter;" parent="1" vertex="1">
          <mxGeometry x="389" y="520" width="160" height="320" as="geometry" />
        </mxCell>
        <mxCell id="kdlLtOx3mS1jV0NhRZuz-37" value="YAAA WHO!" style="text;html=1;align=center;verticalAlign=middle;whiteSpace=wrap;rounded=0;fontFamily=Architects Daughter;fontSource=https%3A%2F%2Ffonts.googleapis.com%2Fcss%3Ffamily%3DArchitects%2BDaughter;fontSize=9;labelBorderColor=none;strokeColor=default;" parent="1" vertex="1">
          <mxGeometry x="389" y="520" width="160" height="30" as="geometry" />
        </mxCell>
        <mxCell id="kdlLtOx3mS1jV0NhRZuz-38" value="" style="triangle;whiteSpace=wrap;html=1;hachureGap=4;fontFamily=Architects Daughter;fontSource=https%3A%2F%2Ffonts.googleapis.com%2Fcss%3Ffamily%3DArchitects%2BDaughter;fillColor=#00CC66;" parent="1" vertex="1">
          <mxGeometry x="506" y="558" width="10" height="14.5" as="geometry" />
        </mxCell>
        <mxCell id="kdlLtOx3mS1jV0NhRZuz-39" value="Scrape this page" style="text;html=1;align=center;verticalAlign=middle;whiteSpace=wrap;rounded=0;fontFamily=Architects Daughter;fontSource=https%3A%2F%2Ffonts.googleapis.com%2Fcss%3Ffamily%3DArchitects%2BDaughter;fontSize=9;labelBorderColor=none;strokeColor=none;" parent="1" vertex="1">
          <mxGeometry x="415.5" y="550" width="81" height="30" as="geometry" />
        </mxCell>
        <mxCell id="kdlLtOx3mS1jV0NhRZuz-41" value="&lt;font style=&quot;font-size: 10px;&quot;&gt;Coding (private)&lt;/font&gt;" style="rounded=1;fillColor=#990099;strokeColor=none;html=1;fontColor=#ffffff;align=left;fontSize=12;spacingLeft=10;sketch=0;hachureGap=4;pointerEvents=0;fontFamily=Architects Daughter;fontSource=https%3A%2F%2Ffonts.googleapis.com%2Fcss%3Ffamily%3DArchitects%2BDaughter;jiggle=2;curveFitting=1;" parent="1" vertex="1">
          <mxGeometry x="401" y="591" width="119" height="33" as="geometry" />
        </mxCell>
        <mxCell id="kdlLtOx3mS1jV0NhRZuz-42" value="" style="shape=triangle;direction=south;fillColor=#ffffff;strokeColor=none;html=1;hachureGap=4;pointerEvents=0;fontFamily=Architects Daughter;fontSource=https%3A%2F%2Ffonts.googleapis.com%2Fcss%3Ffamily%3DArchitects%2BDaughter;fontSize=20;" parent="kdlLtOx3mS1jV0NhRZuz-41" vertex="1">
          <mxGeometry x="1" y="0.5" width="12" height="6" relative="1" as="geometry">
            <mxPoint x="-20" y="-3" as="offset" />
          </mxGeometry>
        </mxCell>
        <mxCell id="kdlLtOx3mS1jV0NhRZuz-48" value="Reference Data Table" style="shape=table;startSize=30;container=1;collapsible=0;childLayout=tableLayout;fixedRows=1;rowLines=0;fontStyle=0;strokeColor=default;fontSize=9;hachureGap=4;fontFamily=Architects Daughter;fontSource=https%3A%2F%2Ffonts.googleapis.com%2Fcss%3Ffamily%3DArchitects%2BDaughter;swimlaneLine=1;" parent="1" vertex="1">
          <mxGeometry x="401" y="654" width="136" height="120" as="geometry" />
        </mxCell>
        <mxCell id="kdlLtOx3mS1jV0NhRZuz-49" value="" style="shape=tableRow;horizontal=0;startSize=0;swimlaneHead=0;swimlaneBody=0;top=0;left=0;bottom=0;right=0;collapsible=0;dropTarget=0;fillColor=none;points=[[0,0.5],[1,0.5]];portConstraint=eastwest;strokeColor=inherit;fontSize=9;sketch=1;hachureGap=4;jiggle=2;curveFitting=1;fontFamily=Architects Daughter;fontSource=https%3A%2F%2Ffonts.googleapis.com%2Fcss%3Ffamily%3DArchitects%2BDaughter;" parent="kdlLtOx3mS1jV0NhRZuz-48" vertex="1">
          <mxGeometry y="30" width="136" height="30" as="geometry" />
        </mxCell>
        <mxCell id="kdlLtOx3mS1jV0NhRZuz-50" value="1" style="shape=partialRectangle;html=1;whiteSpace=wrap;connectable=0;fillColor=none;top=0;left=0;bottom=0;right=0;overflow=hidden;pointerEvents=1;strokeColor=inherit;fontSize=9;sketch=1;hachureGap=4;jiggle=2;curveFitting=1;fontFamily=Architects Daughter;fontSource=https%3A%2F%2Ffonts.googleapis.com%2Fcss%3Ffamily%3DArchitects%2BDaughter;" parent="kdlLtOx3mS1jV0NhRZuz-49" vertex="1">
          <mxGeometry width="30" height="30" as="geometry">
            <mxRectangle width="30" height="30" as="alternateBounds" />
          </mxGeometry>
        </mxCell>
        <mxCell id="kdlLtOx3mS1jV0NhRZuz-51" value="&lt;u&gt;http://wikipedia.com/&lt;/u&gt;" style="shape=partialRectangle;html=1;whiteSpace=wrap;connectable=0;fillColor=none;top=0;left=0;bottom=0;right=0;align=left;spacingLeft=6;overflow=hidden;strokeColor=inherit;fontSize=9;sketch=1;hachureGap=4;jiggle=2;curveFitting=1;fontFamily=Architects Daughter;fontSource=https%3A%2F%2Ffonts.googleapis.com%2Fcss%3Ffamily%3DArchitects%2BDaughter;" parent="kdlLtOx3mS1jV0NhRZuz-49" vertex="1">
          <mxGeometry x="30" width="106" height="30" as="geometry">
            <mxRectangle width="106" height="30" as="alternateBounds" />
          </mxGeometry>
        </mxCell>
        <mxCell id="kdlLtOx3mS1jV0NhRZuz-52" value="" style="shape=tableRow;horizontal=0;startSize=0;swimlaneHead=0;swimlaneBody=0;top=0;left=0;bottom=0;right=0;collapsible=0;dropTarget=0;fillColor=none;points=[[0,0.5],[1,0.5]];portConstraint=eastwest;strokeColor=inherit;fontSize=9;sketch=1;hachureGap=4;jiggle=2;curveFitting=1;fontFamily=Architects Daughter;fontSource=https%3A%2F%2Ffonts.googleapis.com%2Fcss%3Ffamily%3DArchitects%2BDaughter;" parent="kdlLtOx3mS1jV0NhRZuz-48" vertex="1">
          <mxGeometry y="60" width="136" height="30" as="geometry" />
        </mxCell>
        <mxCell id="kdlLtOx3mS1jV0NhRZuz-53" value="2" style="shape=partialRectangle;html=1;whiteSpace=wrap;connectable=0;fillColor=none;top=0;left=0;bottom=0;right=0;overflow=hidden;strokeColor=inherit;fontSize=9;sketch=1;hachureGap=4;jiggle=2;curveFitting=1;fontFamily=Architects Daughter;fontSource=https%3A%2F%2Ffonts.googleapis.com%2Fcss%3Ffamily%3DArchitects%2BDaughter;" parent="kdlLtOx3mS1jV0NhRZuz-52" vertex="1">
          <mxGeometry width="30" height="30" as="geometry">
            <mxRectangle width="30" height="30" as="alternateBounds" />
          </mxGeometry>
        </mxCell>
        <mxCell id="kdlLtOx3mS1jV0NhRZuz-54" value="Value 2" style="shape=partialRectangle;html=1;whiteSpace=wrap;connectable=0;fillColor=none;top=0;left=0;bottom=0;right=0;align=left;spacingLeft=6;overflow=hidden;strokeColor=inherit;fontSize=9;sketch=1;hachureGap=4;jiggle=2;curveFitting=1;fontFamily=Architects Daughter;fontSource=https%3A%2F%2Ffonts.googleapis.com%2Fcss%3Ffamily%3DArchitects%2BDaughter;" parent="kdlLtOx3mS1jV0NhRZuz-52" vertex="1">
          <mxGeometry x="30" width="106" height="30" as="geometry">
            <mxRectangle width="106" height="30" as="alternateBounds" />
          </mxGeometry>
        </mxCell>
        <mxCell id="kdlLtOx3mS1jV0NhRZuz-55" value="" style="shape=tableRow;horizontal=0;startSize=0;swimlaneHead=0;swimlaneBody=0;top=0;left=0;bottom=0;right=0;collapsible=0;dropTarget=0;fillColor=none;points=[[0,0.5],[1,0.5]];portConstraint=eastwest;strokeColor=inherit;fontSize=9;sketch=1;hachureGap=4;jiggle=2;curveFitting=1;fontFamily=Architects Daughter;fontSource=https%3A%2F%2Ffonts.googleapis.com%2Fcss%3Ffamily%3DArchitects%2BDaughter;" parent="kdlLtOx3mS1jV0NhRZuz-48" vertex="1">
          <mxGeometry y="90" width="136" height="30" as="geometry" />
        </mxCell>
        <mxCell id="kdlLtOx3mS1jV0NhRZuz-56" value="3" style="shape=partialRectangle;html=1;whiteSpace=wrap;connectable=0;fillColor=none;top=0;left=0;bottom=0;right=0;overflow=hidden;strokeColor=inherit;fontSize=9;sketch=1;hachureGap=4;jiggle=2;curveFitting=1;fontFamily=Architects Daughter;fontSource=https%3A%2F%2Ffonts.googleapis.com%2Fcss%3Ffamily%3DArchitects%2BDaughter;" parent="kdlLtOx3mS1jV0NhRZuz-55" vertex="1">
          <mxGeometry width="30" height="30" as="geometry">
            <mxRectangle width="30" height="30" as="alternateBounds" />
          </mxGeometry>
        </mxCell>
        <mxCell id="kdlLtOx3mS1jV0NhRZuz-57" value="Value 3" style="shape=partialRectangle;html=1;whiteSpace=wrap;connectable=0;fillColor=none;top=0;left=0;bottom=0;right=0;align=left;spacingLeft=6;overflow=hidden;strokeColor=inherit;fontSize=9;sketch=1;hachureGap=4;jiggle=2;curveFitting=1;fontFamily=Architects Daughter;fontSource=https%3A%2F%2Ffonts.googleapis.com%2Fcss%3Ffamily%3DArchitects%2BDaughter;" parent="kdlLtOx3mS1jV0NhRZuz-55" vertex="1">
          <mxGeometry x="30" width="106" height="30" as="geometry">
            <mxRectangle width="106" height="30" as="alternateBounds" />
          </mxGeometry>
        </mxCell>
        <mxCell id="kdlLtOx3mS1jV0NhRZuz-64" value="" style="endArrow=none;dashed=1;html=1;rounded=0;hachureGap=4;fontFamily=Architects Daughter;fontSource=https%3A%2F%2Ffonts.googleapis.com%2Fcss%3Ffamily%3DArchitects%2BDaughter;exitX=0.015;exitY=0.187;exitDx=0;exitDy=0;exitPerimeter=0;strokeColor=#999999;" parent="1" source="kdlLtOx3mS1jV0NhRZuz-19" edge="1">
          <mxGeometry width="50" height="50" relative="1" as="geometry">
            <mxPoint x="178" y="710" as="sourcePoint" />
            <mxPoint x="198" y="580" as="targetPoint" />
          </mxGeometry>
        </mxCell>
        <mxCell id="kdlLtOx3mS1jV0NhRZuz-65" value="" style="endArrow=none;dashed=1;html=1;rounded=0;hachureGap=4;fontFamily=Architects Daughter;fontSource=https%3A%2F%2Ffonts.googleapis.com%2Fcss%3Ffamily%3DArchitects%2BDaughter;exitX=0.015;exitY=0.187;exitDx=0;exitDy=0;exitPerimeter=0;strokeColor=#999999;" parent="1" edge="1">
          <mxGeometry width="50" height="50" relative="1" as="geometry">
            <mxPoint x="391" y="579.38" as="sourcePoint" />
            <mxPoint x="547" y="579.38" as="targetPoint" />
          </mxGeometry>
        </mxCell>
        <mxCell id="kdlLtOx3mS1jV0NhRZuz-68" value="" style="html=1;verticalLabelPosition=bottom;align=center;labelBackgroundColor=#ffffff;verticalAlign=top;strokeWidth=1;strokeColor=#0080F0;shadow=0;dashed=0;shape=mxgraph.ios7.icons.add;hachureGap=4;fontFamily=Architects Daughter;fontSource=https%3A%2F%2Ffonts.googleapis.com%2Fcss%3Ffamily%3DArchitects%2BDaughter;" parent="1" vertex="1">
          <mxGeometry x="178" y="602.5" width="10" height="10" as="geometry" />
        </mxCell>
        <mxCell id="kdlLtOx3mS1jV0NhRZuz-69" value="" style="html=1;verticalLabelPosition=bottom;align=center;labelBackgroundColor=#ffffff;verticalAlign=top;strokeWidth=1;strokeColor=#0080F0;shadow=0;dashed=0;shape=mxgraph.ios7.icons.add;hachureGap=4;fontFamily=Architects Daughter;fontSource=https%3A%2F%2Ffonts.googleapis.com%2Fcss%3Ffamily%3DArchitects%2BDaughter;" parent="1" vertex="1">
          <mxGeometry x="527" y="602.5" width="10" height="10" as="geometry" />
        </mxCell>
        <mxCell id="kdlLtOx3mS1jV0NhRZuz-70" value="&lt;font style=&quot;font-size: 9px;&quot;&gt;Wallet | Balance 200&lt;/font&gt;" style="rounded=1;fillColor=none;strokeColor=default;html=1;fontColor=#0000FF;align=center;fontSize=10;spacingLeft=10;fontSize=11;hachureGap=4;pointerEvents=0;fontFamily=Architects Daughter;fontSource=https%3A%2F%2Ffonts.googleapis.com%2Fcss%3Ffamily%3DArchitects%2BDaughter;labelBorderColor=none;" parent="1" vertex="1">
          <mxGeometry x="401" y="807" width="136" height="20" as="geometry" />
        </mxCell>
        <mxCell id="kdlLtOx3mS1jV0NhRZuz-71" value="&lt;font style=&quot;font-size: 9px;&quot;&gt;Wallet | Balance 200&lt;/font&gt;" style="rounded=1;fillColor=none;strokeColor=default;html=1;fontColor=#0000FF;align=center;fontSize=10;spacingLeft=10;fontSize=11;hachureGap=4;pointerEvents=0;fontFamily=Architects Daughter;fontSource=https%3A%2F%2Ffonts.googleapis.com%2Fcss%3Ffamily%3DArchitects%2BDaughter;labelBorderColor=none;" parent="1" vertex="1">
          <mxGeometry x="52" y="808" width="136" height="20" as="geometry" />
        </mxCell>
        <mxCell id="kdlLtOx3mS1jV0NhRZuz-72" value="&lt;font style=&quot;font-size: 10px;&quot;&gt;&amp;nbsp; &amp;nbsp;WHO!&lt;/font&gt;" style="rounded=1;fillColor=default;strokeColor=default;html=1;fontColor=#000000;align=left;fontSize=12;spacingLeft=10;sketch=0;hachureGap=4;pointerEvents=0;fontFamily=Architects Daughter;fontSource=https%3A%2F%2Ffonts.googleapis.com%2Fcss%3Ffamily%3DArchitects%2BDaughter;jiggle=2;curveFitting=1;" parent="1" vertex="1">
          <mxGeometry x="401" y="628" width="96" height="19" as="geometry" />
        </mxCell>
        <mxCell id="kdlLtOx3mS1jV0NhRZuz-73" value="" style="shape=triangle;direction=south;fillColor=#000000;strokeColor=none;html=1;hachureGap=4;pointerEvents=0;fontFamily=Architects Daughter;fontSource=https%3A%2F%2Ffonts.googleapis.com%2Fcss%3Ffamily%3DArchitects%2BDaughter;fontSize=20;" parent="kdlLtOx3mS1jV0NhRZuz-72" vertex="1">
          <mxGeometry x="1" y="0.5" width="12" height="6" relative="1" as="geometry">
            <mxPoint x="-20" y="-3" as="offset" />
          </mxGeometry>
        </mxCell>
        <mxCell id="kdlLtOx3mS1jV0NhRZuz-119" value="" style="sketch=0;verticalLabelPosition=bottom;sketch=0;aspect=fixed;html=1;verticalAlign=top;strokeColor=none;fillColor=#000000;align=center;outlineConnect=0;pointerEvents=1;shape=mxgraph.citrix2.user;hachureGap=4;jiggle=2;curveFitting=1;fontFamily=Architects Daughter;fontSource=https%3A%2F%2Ffonts.googleapis.com%2Fcss%3Ffamily%3DArchitects%2BDaughter;" parent="kdlLtOx3mS1jV0NhRZuz-72" vertex="1">
          <mxGeometry x="7.659999999999997" y="5.500000000000043" width="8.84" height="9.05" as="geometry" />
        </mxCell>
        <mxCell id="kdlLtOx3mS1jV0NhRZuz-76" value="" style="triangle;whiteSpace=wrap;html=1;hachureGap=4;fontFamily=Architects Daughter;fontSource=https%3A%2F%2Ffonts.googleapis.com%2Fcss%3Ffamily%3DArchitects%2BDaughter;fillColor=#FF8000;" parent="1" vertex="1">
          <mxGeometry x="508" y="630.25" width="10" height="14.5" as="geometry" />
        </mxCell>
        <mxCell id="kdlLtOx3mS1jV0NhRZuz-77" value="" style="html=1;verticalLabelPosition=bottom;align=center;labelBackgroundColor=#ffffff;verticalAlign=top;strokeWidth=1;strokeColor=#0080F0;shadow=0;dashed=0;shape=mxgraph.ios7.icons.add;hachureGap=4;fontFamily=Architects Daughter;fontSource=https%3A%2F%2Ffonts.googleapis.com%2Fcss%3Ffamily%3DArchitects%2BDaughter;" parent="1" vertex="1">
          <mxGeometry x="527" y="632.5" width="10" height="10" as="geometry" />
        </mxCell>
        <mxCell id="kdlLtOx3mS1jV0NhRZuz-78" value="" style="rounded=0;whiteSpace=wrap;html=1;hachureGap=4;fontFamily=Architects Daughter;fontSource=https%3A%2F%2Ffonts.googleapis.com%2Fcss%3Ffamily%3DArchitects%2BDaughter;" parent="1" vertex="1">
          <mxGeometry x="215" y="520" width="160" height="320" as="geometry" />
        </mxCell>
        <mxCell id="kdlLtOx3mS1jV0NhRZuz-79" value="YAAA WHO!" style="text;html=1;align=center;verticalAlign=middle;whiteSpace=wrap;rounded=0;fontFamily=Architects Daughter;fontSource=https%3A%2F%2Ffonts.googleapis.com%2Fcss%3Ffamily%3DArchitects%2BDaughter;fontSize=9;labelBorderColor=none;strokeColor=default;" parent="1" vertex="1">
          <mxGeometry x="215" y="520" width="160" height="30" as="geometry" />
        </mxCell>
        <mxCell id="kdlLtOx3mS1jV0NhRZuz-80" value="" style="triangle;whiteSpace=wrap;html=1;hachureGap=4;fontFamily=Architects Daughter;fontSource=https%3A%2F%2Ffonts.googleapis.com%2Fcss%3Ffamily%3DArchitects%2BDaughter;fillColor=#00CC66;" parent="1" vertex="1">
          <mxGeometry x="332" y="558" width="10" height="14.5" as="geometry" />
        </mxCell>
        <mxCell id="kdlLtOx3mS1jV0NhRZuz-81" value="Scrape this page" style="text;html=1;align=center;verticalAlign=middle;whiteSpace=wrap;rounded=0;fontFamily=Architects Daughter;fontSource=https%3A%2F%2Ffonts.googleapis.com%2Fcss%3Ffamily%3DArchitects%2BDaughter;fontSize=9;labelBorderColor=none;strokeColor=none;" parent="1" vertex="1">
          <mxGeometry x="241.5" y="550" width="81" height="30" as="geometry" />
        </mxCell>
        <mxCell id="kdlLtOx3mS1jV0NhRZuz-95" value="" style="endArrow=none;dashed=1;html=1;rounded=0;hachureGap=4;fontFamily=Architects Daughter;fontSource=https%3A%2F%2Ffonts.googleapis.com%2Fcss%3Ffamily%3DArchitects%2BDaughter;exitX=0.015;exitY=0.187;exitDx=0;exitDy=0;exitPerimeter=0;strokeColor=#999999;" parent="1" edge="1">
          <mxGeometry width="50" height="50" relative="1" as="geometry">
            <mxPoint x="217" y="579.38" as="sourcePoint" />
            <mxPoint x="373" y="579.38" as="targetPoint" />
          </mxGeometry>
        </mxCell>
        <mxCell id="kdlLtOx3mS1jV0NhRZuz-97" value="&lt;font style=&quot;font-size: 9px;&quot;&gt;Wallet | Balance 200&lt;/font&gt;" style="rounded=1;fillColor=none;strokeColor=default;html=1;fontColor=#0000FF;align=center;fontSize=10;spacingLeft=10;fontSize=11;hachureGap=4;pointerEvents=0;fontFamily=Architects Daughter;fontSource=https%3A%2F%2Ffonts.googleapis.com%2Fcss%3Ffamily%3DArchitects%2BDaughter;labelBorderColor=none;" parent="1" vertex="1">
          <mxGeometry x="227" y="807" width="136" height="20" as="geometry" />
        </mxCell>
        <mxCell id="kdlLtOx3mS1jV0NhRZuz-98" value="&lt;span style=&quot;font-size: 10px;&quot;&gt;&amp;nbsp; &amp;nbsp; Ron&lt;/span&gt;" style="rounded=1;fillColor=none;strokeColor=default;html=1;fontColor=#000000;align=left;fontSize=12;spacingLeft=10;sketch=0;hachureGap=4;pointerEvents=0;fontFamily=Architects Daughter;fontSource=https%3A%2F%2Ffonts.googleapis.com%2Fcss%3Ffamily%3DArchitects%2BDaughter;jiggle=2;curveFitting=1;" parent="1" vertex="1">
          <mxGeometry x="227" y="628" width="96" height="19" as="geometry" />
        </mxCell>
        <mxCell id="kdlLtOx3mS1jV0NhRZuz-99" value="" style="shape=triangle;direction=south;fillColor=#000000;strokeColor=none;html=1;hachureGap=4;pointerEvents=0;fontFamily=Architects Daughter;fontSource=https%3A%2F%2Ffonts.googleapis.com%2Fcss%3Ffamily%3DArchitects%2BDaughter;fontSize=20;" parent="kdlLtOx3mS1jV0NhRZuz-98" vertex="1">
          <mxGeometry x="1" y="0.5" width="12" height="6" relative="1" as="geometry">
            <mxPoint x="-20" y="-3" as="offset" />
          </mxGeometry>
        </mxCell>
        <mxCell id="kdlLtOx3mS1jV0NhRZuz-117" value="" style="sketch=0;verticalLabelPosition=bottom;sketch=0;aspect=fixed;html=1;verticalAlign=top;strokeColor=none;fillColor=#000000;align=center;outlineConnect=0;pointerEvents=1;shape=mxgraph.citrix2.user;hachureGap=4;jiggle=2;curveFitting=1;fontFamily=Architects Daughter;fontSource=https%3A%2F%2Ffonts.googleapis.com%2Fcss%3Ffamily%3DArchitects%2BDaughter;" parent="kdlLtOx3mS1jV0NhRZuz-98" vertex="1">
          <mxGeometry x="10" y="5.500000000000043" width="8.84" height="9.05" as="geometry" />
        </mxCell>
        <mxCell id="kdlLtOx3mS1jV0NhRZuz-100" value="" style="triangle;whiteSpace=wrap;html=1;hachureGap=4;fontFamily=Architects Daughter;fontSource=https%3A%2F%2Ffonts.googleapis.com%2Fcss%3Ffamily%3DArchitects%2BDaughter;fillColor=#FF8000;" parent="1" vertex="1">
          <mxGeometry x="334" y="630.25" width="10" height="14.5" as="geometry" />
        </mxCell>
        <mxCell id="kdlLtOx3mS1jV0NhRZuz-101" value="" style="html=1;verticalLabelPosition=bottom;align=center;labelBackgroundColor=#ffffff;verticalAlign=top;strokeWidth=1;strokeColor=#0080F0;shadow=0;dashed=0;shape=mxgraph.ios7.icons.add;hachureGap=4;fontFamily=Architects Daughter;fontSource=https%3A%2F%2Ffonts.googleapis.com%2Fcss%3Ffamily%3DArchitects%2BDaughter;" parent="1" vertex="1">
          <mxGeometry x="353" y="632.5" width="10" height="10" as="geometry" />
        </mxCell>
        <mxCell id="kdlLtOx3mS1jV0NhRZuz-102" value="" style="rounded=1;fillColor=#ffffff;strokeColor=#DFE1E5;shadow=1;html=1;arcSize=4;hachureGap=4;pointerEvents=0;fontFamily=Architects Daughter;fontSource=https%3A%2F%2Ffonts.googleapis.com%2Fcss%3Ffamily%3DArchitects%2BDaughter;fontSize=20;" parent="1" vertex="1">
          <mxGeometry x="229" y="652" width="95" height="118" as="geometry" />
        </mxCell>
        <mxCell id="kdlLtOx3mS1jV0NhRZuz-103" value="Dumbledore" style="rounded=0;fillColor=#F4F5F7;strokeColor=none;shadow=0;html=1;align=left;fontSize=9;spacingLeft=4;fontColor=#253858;resizeWidth=1;sketch=1;hachureGap=4;pointerEvents=0;fontFamily=Architects Daughter;fontSource=https%3A%2F%2Ffonts.googleapis.com%2Fcss%3Ffamily%3DArchitects%2BDaughter;jiggle=2;curveFitting=1;" parent="kdlLtOx3mS1jV0NhRZuz-102" vertex="1">
          <mxGeometry width="75" height="23" relative="1" as="geometry">
            <mxPoint x="19" y="3" as="offset" />
          </mxGeometry>
        </mxCell>
        <mxCell id="kdlLtOx3mS1jV0NhRZuz-104" value="Harry" style="rounded=0;fillColor=none;strokeColor=none;shadow=0;html=1;align=left;fontSize=9;spacingLeft=4;fontColor=#253858;resizeWidth=1;sketch=1;hachureGap=4;pointerEvents=0;fontFamily=Architects Daughter;fontSource=https%3A%2F%2Ffonts.googleapis.com%2Fcss%3Ffamily%3DArchitects%2BDaughter;jiggle=2;curveFitting=1;" parent="kdlLtOx3mS1jV0NhRZuz-102" vertex="1">
          <mxGeometry width="75" height="23" relative="1" as="geometry">
            <mxPoint x="20" y="24" as="offset" />
          </mxGeometry>
        </mxCell>
        <mxCell id="kdlLtOx3mS1jV0NhRZuz-108" value="WHO!" style="rounded=0;fillColor=none;strokeColor=none;shadow=0;html=1;align=left;fontSize=9;spacingLeft=4;fontColor=#253858;resizeWidth=1;sketch=1;hachureGap=4;pointerEvents=0;fontFamily=Architects Daughter;fontSource=https%3A%2F%2Ffonts.googleapis.com%2Fcss%3Ffamily%3DArchitects%2BDaughter;jiggle=2;curveFitting=1;" parent="kdlLtOx3mS1jV0NhRZuz-102" vertex="1">
          <mxGeometry width="75" height="23" relative="1" as="geometry">
            <mxPoint x="20" y="47" as="offset" />
          </mxGeometry>
        </mxCell>
        <mxCell id="kdlLtOx3mS1jV0NhRZuz-107" value="" style="sketch=0;outlineConnect=0;fontColor=#232F3E;gradientColor=none;fillColor=#232F3D;strokeColor=none;dashed=0;verticalLabelPosition=bottom;verticalAlign=top;align=center;html=1;fontSize=12;fontStyle=0;aspect=fixed;pointerEvents=1;shape=mxgraph.aws4.users;hachureGap=4;jiggle=2;curveFitting=1;fontFamily=Architects Daughter;fontSource=https%3A%2F%2Ffonts.googleapis.com%2Fcss%3Ffamily%3DArchitects%2BDaughter;" parent="kdlLtOx3mS1jV0NhRZuz-102" vertex="1">
          <mxGeometry x="8" y="11.419354838709678" width="7.612903225806452" height="7.612903225806452" as="geometry" />
        </mxCell>
        <mxCell id="kdlLtOx3mS1jV0NhRZuz-109" value="" style="sketch=0;verticalLabelPosition=bottom;sketch=0;aspect=fixed;html=1;verticalAlign=top;strokeColor=none;fillColor=#000000;align=center;outlineConnect=0;pointerEvents=1;shape=mxgraph.citrix2.user;hachureGap=4;jiggle=2;curveFitting=1;fontFamily=Architects Daughter;fontSource=https%3A%2F%2Ffonts.googleapis.com%2Fcss%3Ffamily%3DArchitects%2BDaughter;" parent="kdlLtOx3mS1jV0NhRZuz-102" vertex="1">
          <mxGeometry x="8" y="29.452419354838753" width="8.412258064516129" height="8.61209677419355" as="geometry" />
        </mxCell>
        <mxCell id="kdlLtOx3mS1jV0NhRZuz-110" value="" style="sketch=0;verticalLabelPosition=bottom;sketch=0;aspect=fixed;html=1;verticalAlign=top;strokeColor=none;fillColor=#000000;align=center;outlineConnect=0;pointerEvents=1;shape=mxgraph.citrix2.user;hachureGap=4;jiggle=2;curveFitting=1;fontFamily=Architects Daughter;fontSource=https%3A%2F%2Ffonts.googleapis.com%2Fcss%3Ffamily%3DArchitects%2BDaughter;" parent="kdlLtOx3mS1jV0NhRZuz-102" vertex="1">
          <mxGeometry x="8" y="51.387096774193594" width="8.412258064516129" height="8.61209677419355" as="geometry" />
        </mxCell>
        <mxCell id="kdlLtOx3mS1jV0NhRZuz-111" value="" style="sketch=0;verticalLabelPosition=bottom;sketch=0;aspect=fixed;html=1;verticalAlign=top;strokeColor=none;fillColor=#000000;align=center;outlineConnect=0;pointerEvents=1;shape=mxgraph.citrix2.user;hachureGap=4;jiggle=2;curveFitting=1;fontFamily=Architects Daughter;fontSource=https%3A%2F%2Ffonts.googleapis.com%2Fcss%3Ffamily%3DArchitects%2BDaughter;" parent="kdlLtOx3mS1jV0NhRZuz-102" vertex="1">
          <mxGeometry x="8" y="73.27419354838715" width="8.412258064516129" height="8.61209677419355" as="geometry" />
        </mxCell>
        <mxCell id="kdlLtOx3mS1jV0NhRZuz-112" value="Draco" style="rounded=0;fillColor=none;strokeColor=none;shadow=0;html=1;align=left;fontSize=9;spacingLeft=4;fontColor=#253858;resizeWidth=1;sketch=1;hachureGap=4;pointerEvents=0;fontFamily=Architects Daughter;fontSource=https%3A%2F%2Ffonts.googleapis.com%2Fcss%3Ffamily%3DArchitects%2BDaughter;jiggle=2;curveFitting=1;" parent="kdlLtOx3mS1jV0NhRZuz-102" vertex="1">
          <mxGeometry width="75" height="23" relative="1" as="geometry">
            <mxPoint x="20" y="70" as="offset" />
          </mxGeometry>
        </mxCell>
        <mxCell id="kdlLtOx3mS1jV0NhRZuz-115" value="Dobby" style="rounded=0;fillColor=none;strokeColor=none;shadow=0;html=1;align=left;fontSize=9;spacingLeft=4;fontColor=#253858;resizeWidth=1;sketch=1;hachureGap=4;pointerEvents=0;fontFamily=Architects Daughter;fontSource=https%3A%2F%2Ffonts.googleapis.com%2Fcss%3Ffamily%3DArchitects%2BDaughter;jiggle=2;curveFitting=1;" parent="kdlLtOx3mS1jV0NhRZuz-102" vertex="1">
          <mxGeometry width="75" height="23" relative="1" as="geometry">
            <mxPoint x="20" y="92" as="offset" />
          </mxGeometry>
        </mxCell>
        <mxCell id="kdlLtOx3mS1jV0NhRZuz-116" value="" style="sketch=0;outlineConnect=0;fontColor=#232F3E;gradientColor=none;fillColor=#232F3D;strokeColor=none;dashed=0;verticalLabelPosition=bottom;verticalAlign=top;align=center;html=1;fontSize=12;fontStyle=0;aspect=fixed;pointerEvents=1;shape=mxgraph.aws4.users;hachureGap=4;jiggle=2;curveFitting=1;fontFamily=Architects Daughter;fontSource=https%3A%2F%2Ffonts.googleapis.com%2Fcss%3Ffamily%3DArchitects%2BDaughter;" parent="kdlLtOx3mS1jV0NhRZuz-102" vertex="1">
          <mxGeometry x="7.84" y="95.20887096774193" width="7.612903225806452" height="7.612903225806452" as="geometry" />
        </mxCell>
        <mxCell id="kdlLtOx3mS1jV0NhRZuz-120" value="&lt;font style=&quot;font-size: 10px;&quot;&gt;Coding (private)&lt;/font&gt;" style="rounded=1;fillColor=#990099;strokeColor=none;html=1;fontColor=#ffffff;align=left;fontSize=12;spacingLeft=10;sketch=0;hachureGap=4;pointerEvents=0;fontFamily=Architects Daughter;fontSource=https%3A%2F%2Ffonts.googleapis.com%2Fcss%3Ffamily%3DArchitects%2BDaughter;jiggle=2;curveFitting=1;" parent="1" vertex="1">
          <mxGeometry x="227" y="591" width="119" height="33" as="geometry" />
        </mxCell>
        <mxCell id="kdlLtOx3mS1jV0NhRZuz-121" value="" style="shape=triangle;direction=south;fillColor=#ffffff;strokeColor=none;html=1;hachureGap=4;pointerEvents=0;fontFamily=Architects Daughter;fontSource=https%3A%2F%2Ffonts.googleapis.com%2Fcss%3Ffamily%3DArchitects%2BDaughter;fontSize=20;" parent="kdlLtOx3mS1jV0NhRZuz-120" vertex="1">
          <mxGeometry x="1" y="0.5" width="12" height="6" relative="1" as="geometry">
            <mxPoint x="-20" y="-3" as="offset" />
          </mxGeometry>
        </mxCell>
        <mxCell id="kdlLtOx3mS1jV0NhRZuz-122" value="" style="html=1;verticalLabelPosition=bottom;align=center;labelBackgroundColor=#ffffff;verticalAlign=top;strokeWidth=1;strokeColor=#0080F0;shadow=0;dashed=0;shape=mxgraph.ios7.icons.add;hachureGap=4;fontFamily=Architects Daughter;fontSource=https%3A%2F%2Ffonts.googleapis.com%2Fcss%3Ffamily%3DArchitects%2BDaughter;" parent="1" vertex="1">
          <mxGeometry x="353" y="602.5" width="10" height="10" as="geometry" />
        </mxCell>
        <mxCell id="kdlLtOx3mS1jV0NhRZuz-124" value="Made with Love by YAAA-WHO team" style="text;html=1;align=right;verticalAlign=middle;whiteSpace=wrap;rounded=0;fontFamily=Architects Daughter;fontSource=https%3A%2F%2Ffonts.googleapis.com%2Fcss%3Ffamily%3DArchitects%2BDaughter;fontSize=6;labelBorderColor=none;strokeColor=none;spacingRight=9;" parent="1" vertex="1">
          <mxGeometry x="40" y="829" width="160" height="10" as="geometry" />
        </mxCell>
        <mxCell id="kdlLtOx3mS1jV0NhRZuz-125" value="Made with Love by YAAA-WHO team" style="text;html=1;align=right;verticalAlign=middle;whiteSpace=wrap;rounded=0;fontFamily=Architects Daughter;fontSource=https%3A%2F%2Ffonts.googleapis.com%2Fcss%3Ffamily%3DArchitects%2BDaughter;fontSize=6;labelBorderColor=none;strokeColor=none;spacingRight=9;" parent="1" vertex="1">
          <mxGeometry x="215" y="829" width="160" height="10" as="geometry" />
        </mxCell>
        <mxCell id="kdlLtOx3mS1jV0NhRZuz-126" value="Made with Love by YAAA-WHO team" style="text;html=1;align=right;verticalAlign=middle;whiteSpace=wrap;rounded=0;fontFamily=Architects Daughter;fontSource=https%3A%2F%2Ffonts.googleapis.com%2Fcss%3Ffamily%3DArchitects%2BDaughter;fontSize=6;labelBorderColor=none;strokeColor=none;spacingRight=9;" parent="1" vertex="1">
          <mxGeometry x="389" y="829" width="160" height="10" as="geometry" />
        </mxCell>
        <mxCell id="W8ZjUxMZ1Ju0fuEqUYie-1" value="Postgres" style="rounded=1;whiteSpace=wrap;html=1;sketch=1;hachureGap=4;jiggle=2;curveFitting=1;fontFamily=Architects Daughter;fontSource=https%3A%2F%2Ffonts.googleapis.com%2Fcss%3Ffamily%3DArchitects%2BDaughter;" vertex="1" parent="1">
          <mxGeometry x="669" y="132" width="90" height="80" as="geometry" />
        </mxCell>
      </root>
    </mxGraphModel>
  </diagram>
</mxfile>
